<svg xmlns="http://www.w3.org/2000/svg" width="28" height="28" viewBox="0 0 28 28">    <g fill="none" fill-rule="evenodd">        <path fill="#4081ED" d="M25.25 14.49c0-.814-.073-1.596-.209-2.348H14.23v4.44h6.178a5.28 5.28 0 0 1-2.291 3.466v2.88h3.71c2.17-1.999 3.423-4.941 3.423-8.438z"/>        <path fill="#32A350" d="M14.23 25.71c3.1 0 5.698-1.029 7.597-2.782l-3.71-2.88c-1.028.688-2.343 1.095-3.887 1.095-2.99 0-5.521-2.019-6.424-4.732H3.971v2.974a11.475 11.475 0 0 0 10.259 6.324z"/>        <path fill="#F4B604" d="M7.806 16.41a6.9 6.9 0 0 1-.36-2.18 6.9 6.9 0 0 1 .36-2.182V9.074H3.971A11.475 11.475 0 0 0 2.75 14.23c0 1.852.444 3.605 1.221 5.155l3.835-2.974z"/>        <path fill="#E24133" d="M14.23 7.316c1.685 0 3.198.579 4.388 1.716L21.91 5.74c-1.988-1.852-4.586-2.99-7.68-2.99-4.488 0-8.37 2.572-10.259 6.324l3.835 2.974c.903-2.713 3.434-4.732 6.424-4.732z"/>    </g></svg>