<svg xmlns="http://www.w3.org/2000/svg" width="28" height="28" viewBox="0 0 28 28">    <path fill="#2164AD" fill-rule="evenodd" d="M7.387 16.682c1.913 1.885 4.232 2.847 7.022 2.914 2.776.067 5.26-.887 7.506-2.905l-.618-1.143a1.366 1.366 0 0 1 2.402-1.3l.911 1.685c.205.2.333.449.385.71l1.84 3.402a1.366 1.366 0 1 1-2.402 1.3l-1.188-2.196c-2.633 2.185-5.616 3.256-8.902 3.177-3.262-.078-6.08-1.171-8.4-3.254L4.533 21.4a1.366 1.366 0 0 1-2.337-1.413l3.504-5.796a1.366 1.366 0 1 1 2.337 1.413l-.651 1.077zm2.385-6.13a2.276 2.276 0 1 1 0-4.552 2.276 2.276 0 0 1 0 4.552zm9.104 0a2.276 2.276 0 1 1 0-4.552 2.276 2.276 0 0 1 0 4.552z"/></svg>