<svg xmlns="http://www.w3.org/2000/svg" width="28" height="28" viewBox="0 0 28 28">    <path fill="#F7921E" fill-rule="evenodd" d="M13.241 19.514c-1.927-.201-3.665-.676-5.153-1.84-.185-.144-.375-.284-.544-.446-.651-.625-.717-1.342-.202-2.08.441-.632 1.181-.8 1.95-.438.15.07.292.158.428.253 2.773 1.905 6.582 1.958 9.366.085.276-.211.57-.384.912-.472.665-.17 1.284.074 1.64.655.408.664.403 1.312-.1 1.827-.769.79-1.695 1.362-2.723 1.76-.973.378-2.038.568-3.093.694.16.173.234.258.334.358 1.432 1.439 2.87 2.871 4.297 4.314.486.492.587 1.101.32 1.673-.293.625-.948 1.037-1.59.993-.408-.029-.725-.231-1.007-.515-1.08-1.088-2.181-2.155-3.24-3.263-.308-.322-.456-.26-.728.019a216.703 216.703 0 0 1-3.303 3.316c-.499.492-1.093.58-1.671.3-.616-.298-1.007-.926-.977-1.557.021-.427.231-.753.524-1.046 1.417-1.414 2.83-2.833 4.243-4.25.094-.094.181-.194.317-.34zm1.175-4.928c-3.44-.012-6.259-2.863-6.239-6.307.02-3.482 2.841-6.289 6.314-6.279 3.48.01 6.273 2.856 6.255 6.375-.017 3.437-2.857 6.223-6.33 6.21zm3.125-6.299a3.065 3.065 0 0 0-3.075-3.073 3.07 3.07 0 0 0-3.082 3.11 3.065 3.065 0 0 0 3.098 3.05 3.059 3.059 0 0 0 3.059-3.087z"/></svg>