<svg xmlns="http://www.w3.org/2000/svg" width="28" height="28" viewBox="0 0 28 28">    <path fill="#1DA1F3" fill-rule="evenodd" d="M23.141 9.539c.009.198.014.398.014.598 0 6.083-4.63 13.095-13.099 13.095-2.6 0-5.02-.76-7.056-2.067a9.24 9.24 0 0 0 6.815-1.906 4.608 4.608 0 0 1-4.3-3.197 4.64 4.64 0 0 0 2.079-.078A4.604 4.604 0 0 1 3.9 11.471l.001-.058c.62.344 1.33.551 2.084.575a4.6 4.6 0 0 1-2.047-3.83c0-.845.227-1.636.623-2.316a13.07 13.07 0 0 0 9.488 4.81 4.598 4.598 0 0 1-.119-1.049 4.603 4.603 0 0 1 7.963-3.15 9.188 9.188 0 0 0 2.924-1.117 4.624 4.624 0 0 1-2.027 2.547 9.152 9.152 0 0 0 2.644-.724 9.26 9.26 0 0 1-2.294 2.38z"/></svg>